# xmcd
#
# Track frame offsets: 
#        150
#        18305
#        38304
#        62477
#        82430
#        104420
#        127340
#        154044
#        176401
#
# Disc length: 2621 seconds
#
# Revision: 1
# Processed by: cddbd v1.5.2PL0 Copyright (c) Steve Scherf et al.
# Submitted via: ExactAudioCopyFreeDBPlugin 1.0
#
DISCID=6f0a3b09
DTITLE=Beau Williams - No More Tears
DYEAR=1986
DGENRE=Soul
TTITLE0=All Because Of You
TTITLE1=Been To Long
TTITLE2=There's Something About You
TTITLE3=I'll Be True
TTITLE4=Give Me Up
TTITLE5=Don't Be Gone Stay
TTITLE6=No More Tears
TTITLE7=I Found A Love
TTITLE8=Give Me Up (Instrumental)
EXTD=
EXTT0=
EXTT1=
EXTT2=
EXTT3=
EXTT4=
EXTT5=
EXTT6=
EXTT7=
EXTT8=
PLAYORDER=
